HIERARCHY
ROOT Hips
{
    OFFSET 0.000000 0.000000 0.000000
    CHANNELS 6 Xposition Yposition Zposition Zrotation Xrotation Yrotation
        JOINT Chest
        {
            OFFSET -0.000000 28.596201 -0.000000
            CHANNELS 3 Zrotation Xrotation Yrotation
            JOINT Neck
            {
                OFFSET -0.000000 20.833183 0.000000
                CHANNELS 3 Zrotation Xrotation Yrotation
                JOINT Head
                {
                    OFFSET -0.000000 10.327778 0.000000
                    CHANNELS 3 Zrotation Xrotation Yrotation
                    End Site
                    {
                        OFFSET -0.000000 15.961117 0.000000
                    }
                }
            }
            JOINT LeftCollar
            {
                OFFSET -0.000000 20.833183 0.000000
                CHANNELS 3 Zrotation Xrotation Yrotation
                JOINT LeftShoulder
                {
                    OFFSET 18.777777 -0.000000 0.000000
                    CHANNELS 3 Zrotation Xrotation Yrotation
                    JOINT LeftElbow
                    {
                        OFFSET 23.016544 0.000000 0.000000
                        CHANNELS 3 Zrotation Xrotation Yrotation
                        JOINT LeftWrist
                        {
                            OFFSET 24.619797 0.000000 0.000000
                            CHANNELS 3 Zrotation Xrotation Yrotation
                            End Site
                            {
                                OFFSET 0.000000 -14.083333 0.000000
                            }
                        }
                    }
                }
            }
            JOINT RightCollar
            {
                OFFSET -0.000000 20.833183 0.000000
                CHANNELS 3 Zrotation Xrotation Yrotation
                JOINT RightShoulder
                {
                    OFFSET -18.777777 0.000000 0.000000
                    CHANNELS 3 Zrotation Xrotation Yrotation
                    JOINT RightElbow
                    {
                        OFFSET -23.016544 0.000000 0.000000
                        CHANNELS 3 Zrotation Xrotation Yrotation
                        JOINT RightWrist
                        {
                            OFFSET -24.619797 0.000000 0.000000
                            CHANNELS 3 Zrotation Xrotation Yrotation
                            End Site
                            {
                                OFFSET -0.000000 -14.083333 0.000000
                            }
                        }
                    }
                }
            }
        }
    JOINT LeftHip
    {
        OFFSET 11.266668 0.000000 0.000000
        CHANNELS 3 Zrotation Xrotation Yrotation
        JOINT LeftKnee
        {
            OFFSET -0.000000 -40.535309 0.000000
            CHANNELS 3 Zrotation Xrotation Yrotation
            JOINT LeftAnkle
            {
                OFFSET -0.000000 -39.958225 0.000000
                CHANNELS 3 Zrotation Xrotation Yrotation
                End Site
                {
                    OFFSET -0.000000 -4.694444 15.961117
                }
            }
        }
    }
    JOINT RightHip
    {
        OFFSET -11.266668 0.000000 0.000000
        CHANNELS 3 Zrotation Xrotation Yrotation
        JOINT RightKnee
        {
            OFFSET -0.000000 -40.535309 0.000000
            CHANNELS 3 Zrotation Xrotation Yrotation
            JOINT RightAnkle
            {
                OFFSET -0.000000 -39.958225 0.000000
                CHANNELS 3 Zrotation Xrotation Yrotation
                End Site
                {
                    OFFSET -0.000000 -4.694444 15.961117
                }
            }
        }
    }
}
MOTION
Frames:    16
Frame Time:    0.010000
-73.898064    85.784325    -94.553421    -2.878921    7.184402    34.529869    -5.369743    11.465956    -5.141263    -9.370951    3.322030    -5.302104    9.287863    -33.535904    -2.802758    -19.696362    -2.684569    15.298238    -9.703814    59.223965    -80.061028    20.093880    -1.949614    -11.746139    80.745598    25.552994    128.841705    21.718241    2.122431    11.149569    21.242214    43.200371    50.663528    5.260696    1.637765    33.584885    -114.411247    2.082970    16.094585    12.898626    -12.343984    12.087878    -23.096558    38.477654    11.247326    -3.509844    -15.445945    22.454336    0.001510    -33.085644    -6.753406    -14.087734    37.781658    3.191859    8.498398    -8.223497    -7.715752    
-74.101051    85.739517    -94.686050    -3.101170    7.054220    35.458069    -5.162192    11.744750    -4.556196    -9.171988    3.138600    -6.036224    8.973344    -33.368736    -3.623695    -19.574995    -2.610822    14.946017    -13.532961    58.779873    -75.993523    19.738796    -2.040016    -12.574298    81.013466    25.835690    128.235519    21.754906    2.164663    11.372050    21.175554    43.291759    51.221615    5.444944    1.670056    32.943378    -114.098083    1.859976    16.351807    12.472256    -12.696986    12.669294    -23.806793    39.146896    11.571405    -3.397796    -15.248676    23.180557    -0.109114    -33.210281    -6.908269    -13.793376    38.063938    2.493933    8.591581    -8.169417    -7.841003    
-74.285049    85.676300    -94.822403    -3.327098    6.891050    36.353863    -4.916160    12.020548    -3.975067    -9.031936    2.945974    -6.757791    8.695463    -33.139584    -4.426986    -19.407528    -2.531254    14.608932    -17.047289    58.247173    -72.302307    19.429064    -2.131347    -13.278101    81.188942    26.134079    127.587517    21.812885    2.211400    11.600262    21.134319    43.367626    51.746529    5.670874    1.712156    32.269493    -113.847618    1.515461    16.621510    11.947797    -12.866546    13.238930    -24.105005    39.417038    11.785143    -2.997135    -15.236189    24.105949    -0.232375    -33.368050    -7.128318    -13.530373    38.418228    1.848111    8.714687    -8.119428    -7.883990    
-74.452927    85.595428    -94.965416    -3.559443    6.704496    37.230679    -4.631121    12.287707    -3.416789    -8.945622    2.748333    -7.466343    8.451104    -32.862648    -5.211564    -19.192356    -2.455315    14.348144    -19.822098    57.778015    -69.433296    19.272762    -2.217620    -13.703486    81.217201    26.319336    127.079201    21.895912    2.278087    11.825161    21.076542    43.419376    52.275532    5.955239    1.775001    31.557648    -113.696053    1.079431    16.896206    11.334200    -12.877659    13.751043    -23.995762    39.278027    11.901146    -2.303997    -15.421672    25.155806    -0.382563    -33.574799    -7.453056    -13.318212    38.848900    1.274966    8.872296    -8.067933    -7.828582    
-74.608521    85.498810    -95.117477    -3.800184    6.505288    38.102074    -4.308429    12.540738    -2.895128    -8.905188    2.555532    -8.156812    8.238413    -32.564491    -5.970421    -18.942240    -2.362811    14.224449    -21.590359    57.498940    -67.650337    19.288298    -2.294840    -13.764726    81.092575    26.311583    126.869446    22.013950    2.348235    12.050927    20.946945    43.479179    52.848106    6.253215    1.824504    30.826880    -113.642044    0.602678    17.156343    10.650043    -12.768680    14.151489    -23.528881    38.753006    11.936269    -1.342722    -15.787066    26.263525    -0.572991    -33.843830    -7.907943    -13.172714    39.358078    0.784237    9.068320    -8.003345    -7.662997    
-74.756210    85.389671    -95.279991    -4.049715    6.304239    38.979828    -3.952328    12.778130    -2.416605    -8.903862    2.372882    -8.833548    8.050898    -32.270969    -6.708960    -18.647419    -2.338034    14.260094    -22.285677    57.584934    -67.037552    19.723291    -2.359019    -13.367676    80.665604    26.012468    127.094635    22.167572    2.421782    12.269039    20.720058    43.553089    53.482574    6.572690    1.874590    30.091787    -113.682343    0.141409    17.385170    9.921881    -12.588257    14.387670    -22.783537    37.903629    11.903002    -0.172699    -16.291969    27.376118    -0.814559    -34.182747    -8.497655    -13.101360    39.943180    0.368305    9.303749    -7.906286    -7.379859    
-74.900139    85.272720    -95.452805    -4.305093    6.110498    39.871677    -3.572323    13.002388    -1.978634    -8.932590    2.208443    -9.496281    7.886302    -32.013405    -7.425022    -18.340620    -2.313586    14.458104    -21.938917    57.962818    -67.491516    20.244488    -2.366210    -12.633299    80.137642    25.501425    127.771416    22.356981    2.503817    12.487292    20.383644    43.645569    54.185101    6.901222    1.923560    29.374897    -113.795494    -0.252575    17.572622    9.180712    -12.385235    14.412168    -21.854374    36.817711    11.816622    1.114961    -16.880693    28.449787    -1.115261    -34.590256    -9.205674    -13.100838    40.595932    0.010445    9.576351    -7.754875    -6.986037    
-75.043488    85.153999    -95.634117    -4.559911    5.931476    40.779953    -3.181825    13.221621    -1.570500    -8.984303    2.063278    -10.149864    7.740534    -31.812431    -8.124556    -18.034927    -2.304700    14.793084    -20.639984    58.571804    -68.915558    20.950649    -2.326804    -11.597919    79.466347    24.777424    128.843567    22.593464    2.536343    12.706203    19.910942    43.822525    54.969639    7.123672    1.925172    28.715996    -113.909096    -0.522662    17.685884    8.458153    -12.201238    14.186620    -20.841305    35.593159    11.704170    2.414716    -17.490723    29.445860    -1.479904    -35.056534    -9.999642    -13.158454    41.303253    -0.300823    9.882546    -7.533050    -6.512043    
-75.187965    85.040382    -95.820724    -4.804567    5.771237    41.700859    -2.796332    13.448915    -1.174233    -9.051953    1.935468    -10.798882    7.609835    -31.682329    -8.810987    -17.745861    -2.314135    15.232024    -18.563217    59.287754    -71.094208    21.729036    -2.233549    -10.384568    78.734734    23.918797    130.205338    22.850906    2.615156    12.933692    19.366777    43.995689    55.799885    7.432379    1.964772    28.081320    -114.100723    -0.688389    17.761574    7.783681    -12.063402    13.690566    -19.839245    34.323303    11.603012    3.628323    -18.061249    30.329515    -1.909277    -35.562870    -10.834958    -13.251056    42.047283    -0.574378    10.218263    -7.233594    -6.005488    
-75.333893    84.938828    -96.008553    -5.029128    5.630904    42.625626    -2.429889    13.698806    -0.768416    -9.134106    1.816208    -11.454300    7.487057    -31.620594    -9.497024    -17.488649    -2.339239    15.727644    -15.939125    59.982136    -73.762604    22.489389    -2.086761    -9.121579    78.000977    23.002983    131.733185    23.133924    2.680683    13.165154    18.683939    44.228352    56.738365    7.584374    1.942381    27.518064    -114.246620    -0.708812    17.733732    7.183101    -11.984637    12.933063    -18.927319    33.089394    11.545920    4.680721    -18.540764    31.071508    -2.398685    -36.084679    -11.659098    -13.346010    42.805866    -0.829068    10.579832    -6.854883    -5.511822    
-75.480560    84.855766    -96.193260    -5.224801    5.508739    43.541607    -2.093752    13.980967    -0.331142    -9.228745    1.704491    -12.114959    7.370056    -31.622931    -10.183172    -17.272583    -2.384307    16.251125    -13.050229    60.563057    -76.612251    23.190773    -1.905375    -7.916611    77.298698    22.101116    133.299255    23.426100    2.778373    13.417952    17.936058    44.480583    57.734779    7.716315    1.918557    26.987911    -114.423752    -0.623452    17.626682    6.677437    -11.965996    11.967137    -18.158339    31.959690    11.537381    5.529005    -18.891212    31.653881    -2.938101    -36.594879    -12.420290    -13.407733    43.553738    -1.095243    10.964818    -6.395843    -5.057964    
-75.626778    84.796570    -96.370895    -5.386397    5.401807    44.433620    -1.795026    14.299626    0.157007    -9.348288    1.591446    -12.800101    7.252195    -31.658779    -10.892644    -17.105097    -2.437904    16.744720    -10.191274    60.984379    -79.328560    23.777376    -1.713833    -6.870179    76.676544    21.275772    134.788589    23.722664    2.878497    13.668379    17.103811    44.767769    58.814682    7.722106    1.855019    26.497093    -114.581360    -0.429034    17.420025    6.282117    -12.002915    10.899163    -17.549845    30.992197    11.534789    6.161608    -19.090408    32.070850    -3.512548    -37.070023    -13.078959    -13.409671    44.265518    -1.399977    11.370259    -5.854645    -4.649495    
-75.771454    84.765396    -96.538429    -5.512946    5.307536    45.285603    -1.531389    14.641060    0.708730    -9.469061    1.514638    -13.440164    7.161886    -31.750908    -11.546159    -16.986040    -2.504932    17.296852    -7.632899    61.230854    -81.621147    24.280519    -1.533466    -6.030862    76.147835    20.549089    136.110260    24.039074    2.997208    14.049454    16.276442    45.132973    59.886646    7.662501    1.794436    26.017811    -114.733841    -0.149132    17.132639    6.004982    -12.090140    9.879334    -17.084478    30.234917    11.452347    6.591482    -19.132437    32.328106    -4.104690    -37.494743    -13.613997    -13.343094    44.919624    -1.751827    11.789571    -5.230148    -4.274417    
-75.913910    84.764885    -96.694298    -5.608088    5.225339    46.084007    -1.289286    15.005233    1.332245    -9.639476    1.421596    -14.132214    7.052564    -31.790270    -12.262538    -16.904451    -2.578693    17.735212    -5.543146    61.375610    -83.346092    24.697083    -1.378476    -5.440696    75.743141    19.946049    137.212158    24.343679    3.094657    14.376566    15.415535    45.516087    61.015888    7.515792    1.685557    25.542494    -114.855072    0.183935    16.802912    5.844057    -12.224062    9.067680    -16.720062    29.719210    11.192734    6.845701    -19.025909    32.434643    -4.698842    -37.864120    -14.023487    -13.218383    45.501427    -2.133706    12.213796    -4.524839    -3.911976    
-76.053528    84.795891    -96.838440    -5.677800    5.155056    46.821617    -1.083355    15.371608    2.031935    -9.845927    1.331078    -14.846426    6.918086    -31.786722    -13.011021    -16.857466    -2.632474    18.089321    -4.011251    61.433834    -84.409897    25.007450    -1.270977    -5.128443    75.490524    19.497463    138.077026    24.629889    3.209616    14.690624    14.599863    45.887379    62.135040    7.375675    1.641254    25.043276    -114.918816    0.570082    16.435005    5.786787    -12.399472    8.593277    -16.403103    29.452358    10.683265    6.956963    -18.791046    32.398296    -5.285607    -38.179008    -14.322871    -13.059578    46.002907    -2.508423    12.637729    -3.745833    -3.536181    
-76.189400    84.857277    -96.972023    -5.728522    5.096898    47.499268    -0.906496    15.714850    2.800896    -10.048887    1.294332    -15.501740    6.775719    -31.775169    -13.705544    -16.822132    -2.698766    18.476910    -3.024823    61.456917    -84.844849    25.350809    -1.210452    -5.021734    75.313843    19.165234    138.736771    24.924353    3.333643    15.120184    13.861539    46.311325    63.194431    7.211945    1.603426    24.524210    -114.916176    0.972216    16.057259    5.810881    -12.607261    8.520310    -16.083784    29.412285    9.898098    6.960947    -18.454611    32.231674    -5.864866    -38.443325    -14.542629    -12.900346    46.422592    -2.820757    13.063437    -2.905819    -3.120341    
